# AST/ASF file generated using VICON BodyLanguage
# -----------------------------------------------
:version 1.10
:name VICON
:units
  mass 1.0
  length 0.45
  angle deg
:documentation
   .ast/.asf automatically generated from VICON data using
   VICON BodyBuilder and BodyLanguage model FoxedUp or BRILLIANT.MOD
:root
   order TX TY TZ RX RY RZ
   axis XYZ
   position 0 0 0  
   orientation 0 -0 0 
:bonedata
  begin
     id 1 
     name lhipjoint
     direction 0.500677 -0.737119 0.453848 
     length 2.34727 
     axis 0 -0 0  XYZ
  end
  begin
     id 2 
     name lfemur
     direction 0.34202 -0.939693 0  
     length 7.53653  
     axis 0 -0 20  XYZ
    dof rx ry rz
    limits (-160.0 20.0)
           (-70.0 70.0)
           (-60.0 70.0)
  end
  begin
     id 3 
     name ltibia
     direction 0.34202 -0.939693 0   
     length 6.85572   
     axis 0 -0 20   XYZ
    dof rx
    limits (-10.0 170.0)
  end
  begin
     id 4 
     name lfoot
     direction 0.155313 -0.426718 0.890949   
     length 2.18324   
     axis -90 -1.13533e-015 20   XYZ
    dof rx rz
    limits (-45.0 90.0)
           (-70.0 20.0)
  end
  begin
     id 5 
     name ltoes
     direction 1.53474e-011 -4.21647e-011 1   
     length 1.06748   
     axis -90 -1.13533e-015 20   XYZ
    dof rx
    limits (-90.0 20.0)
  end
  begin
     id 6 
     name rhipjoint
     direction -0.632471 -0.659587 0.406111   
     length 2.62319  
     axis 0 -0 0  XYZ 
  end
  begin
     id 7 
     name rfemur
     direction -0.34202 -0.939693 0   
     length 7.21735   
     axis 0 -0 -20   XYZ
    dof rx ry rz
    limits (-160.0 20.0)
           (-70.0 70.0)
           (-70.0 60.0)
  end
  begin
     id 8 
     name rtibia
     direction -0.34202 -0.939693 0   
     length 7.02558   
     axis 0 -0 -20   XYZ
    dof rx
    limits (-10.0 170.0)
 end
 begin
     id 9 
     name rfoot
     direction -0.16057 -0.441164 0.882945   
     length 2.10014  
     axis -90 1.13533e-015 -20   XYZ
    dof rx rz
    limits (-45.0 90.0)
           (-20.0 70.0)
  end
  begin
     id 10 
     name rtoes
     direction -1.53553e-011 -4.2192e-011 1   
     length 1.02554   
     axis -90 1.13533e-015 -20   XYZ
    dof rx
    limits (-90.0 20.0)
  end
  begin
     id 11 
     name lowerback
     direction 0.0401429 0.998861 -0.0258085   
     length 1.80848   
     axis 0 -0 0   XYZ
    dof rx ry rz
    limits (-20.0 45.0)
           (-30.0 30.0)
           (-30.0 30.0)
  end
  begin
     id 12 
     name upperback
     direction -0.0130978 0.999914 -0.000352645   
     length 1.8116   
     axis 0 -0 0   XYZ
    dof rx ry rz
    limits (-20.0 45.0)
           (-30.0 30.0)
           (-30.0 30.0)
  end
  begin
     id 13 
     name thorax
     direction -0.0300198 0.999453 0.0138573   
     length 1.81778   
     axis 0 -0 0   XYZ
    dof rx ry rz
    limits (-20.0 45.0)
           (-30.0 30.0)
           (-30.0 30.0)
  end
  begin
     id 14 
     name lowerneck
     direction -0.0401726 0.999191 -0.00173647   
     length 2.10594   
     axis 0 -0 0   XYZ
    dof rx ry rz
    limits (-20.0 45.0)
           (-30.0 30.0)
           (-30.0 30.0)
  end
  begin
     id 15 
     name upperneck
     direction 0.0119835 0.998501 0.0534085   
     length 2.07325   
     axis 0 -0 0   XYZ
    dof rx ry rz
    limits (-20.0 45.0)
           (-30.0 30.0)
           (-30.0 30.0)
  end
  begin
     id 16
     name head
     direction 0.00628309 0.999826 0.0175921  
     length 2.15096  
     axis 0 -0 0   XYZ
    dof rx ry rz
    limits (-20.0 45.0)
           (-30.0 30.0)
           (-30.0 30.0)
  end
  begin
     id 17 
     name lclavicle
     direction 0.895501 0.429681 -0.115981  
     length 4.18092  
     axis 0 -0 0   XYZ
    dof ry rz
    limits (-20.0 10.0)
           (0.0 20.0)
  end
  begin
     id 18 
     name lhumerus
     direction 1 -4.48961e-011 -3.38433e-028   
     length 5.77237   
     axis 180 -30 -90   XYZ
    dof rx ry rz
    limits (-60.0 90.0)
           (-90.0 90.0)
           (-90.0 90.0)
  end
  begin
     id 19
     name lradius
     direction 1 -4.4901e-011 1.11983e-026   
     length 2.91878   
     axis 180 -30 -90   XYZ
    dof rx
    limits (-10.0 170.0)
  end
  begin
     id 20
     name lwrist
     direction 1 -4.48934e-011 1.88176e-026   
     length 1.45939   
     axis -1.23311e-014 90 90   XYZ
    dof ry
    limits (-180.0 0.0)
 end
  begin
     id 21 
     name lhand
     direction 1 -4.4895e-011 3.76352e-026   
     length 1.06566   
     axis -2.40147e-014 90 90   XYZ
    dof rx rz
    limits (-90.0 90.0)
           (-45.0 45.0)
  end
  begin
     id 22 
     name lfingers
     direction 1 -4.49005e-011 7.52705e-026   
     length 0.859162   
     axis -4.80295e-014 90 90   XYZ
    dof rx
    limits (0.0 90.0)
  end
  begin
     id 23
     name lthumb
     direction 0.707107 -6.34885e-011 0.707107   
     length 1.23359   
     axis -90 45 -9.86935e-015   XYZ
    dof rx rz
    limits (-45.0 45.0)
           (-45.0 45.0)
  end
  begin
     id 24 
     name rclavicle
     direction -0.91006 0.40451 -0.0903492   
     length 4.23293  
     axis 0 -0 0   XYZ 
    dof ry rz
    limits (-10.0 20.0)
           (-20.0 0.0)
  end
  begin
     id 25 
     name rhumerus
     direction -1 -4.4897e-011 1.7415e-027  
     length 5.49854   
     axis 180 30 90   XYZ
    dof rx ry rz
    limits (-90.0 60.0)
           (-90.0 90.0)
           (-90.0 90.0)
  end
  begin
     id 26 
     name rradius
     direction -1 -4.48963e-011 1.21259e-026   
     length 3.1186   
     axis 180 30 90   XYZ
    dof rx
    limits (-10.0 170.0)
  end
  begin
     id 27 
     name rwrist
     direction -1 -4.48967e-011 1.88176e-026   
     length 1.5593   
     axis -1.23311e-014 -90 -90   XYZ
    dof ry
    limits (-180.0 0.0)
  end
  begin
     id 28
     name rhand
     direction -1 -4.4895e-011 3.76352e-026   
     length 0.71207   
     axis -2.40147e-014 -90 -90   XYZ
    dof rx rz
    limits (-90.0 90.0)
           (-45.0 45.0)
  end
  begin
     id 29
     name rfingers
     direction -1 -4.49005e-011 7.52705e-026   
     length 0.574089   
     axis -4.80295e-014 -90 -90   XYZ
    dof rx
    limits (0.0 90.0)
  end
  begin
     id 30
     name rthumb
     direction -0.707107 -6.34982e-011 0.707107   
     length 0.824281   
     axis -90 -45 9.86935e-015   XYZ
    dof rx rz
    limits (-45.0 45.0)
           (-45.0 45.0)
  end
:hierarchy
  begin
    root lhipjoint rhipjoint lowerback
    lhipjoint lfemur
    lfemur ltibia
    ltibia lfoot
    lfoot ltoes
    rhipjoint rfemur
    rfemur rtibia
    rtibia rfoot
    rfoot rtoes
    lowerback upperback
    upperback thorax
    thorax lowerneck lclavicle rclavicle
    lowerneck upperneck
    upperneck head
    lclavicle lhumerus
    lhumerus lradius
    lradius lwrist
    lwrist lhand lthumb
    lhand lfingers
    rclavicle rhumerus
    rhumerus rradius
    rradius rwrist
    rwrist rhand rthumb
    rhand rfingers
  end

#!OML:ASF C:\ViconDB\ViconDB\414\Spring2016\042216\male.ASF
:FULLY-SPECIFIED
:DEGREES
263
root -41.582 16.8465 12.6356 -155.385 80.2429 -168.759
lowerback -0.58269 -2.35036 5.33924
upperback 0.257301 -3.17379 -0.813759
thorax 0.255574 -1.575 -3.8442
lowerneck -0.292403 2.25353 -4.3824
upperneck -10.0612 3.44438 4.02954
head -3.37247 1.81207 1.99252
rclavicle -3.77691e-015 1.70955e-014
rhumerus -20.4492 13.0396 -96.6118
rradius 56.4366
rwrist 4.45486
rhand 0.724359 -23.0574
rfingers 7.12502
rthumb 26.284 -51.2566
lclavicle -3.77691e-015 1.70955e-014
lhumerus -41.6057 15.4444 84.1392
lradius 41.6571
lwrist 10.1213
lhand -21.1069 18.6134
lfingers 7.12502
lthumb 5.2711 48.5278
rfemur -26.602 -4.04144 22.2434
rtibia 46.5948
rfoot -26.7429 -14.0197
rtoes -12.5573
lfemur -8.99933 -4.65086 -19.5053
ltibia 23.5659
lfoot -38.4791 12.4138
ltoes -16.0525
264
root -41.4494 16.8422 12.6257 -155.769 79.9421 -169.44
lowerback -0.507988 -2.49509 5.48422
upperback 0.27307 -3.36376 -0.890589
thorax 0.19696 -1.67117 -4.00043
lowerneck -0.263754 2.18352 -4.3733
upperneck -10.3859 3.37259 4.07432
head -3.48826 1.77915 2.00953
rclavicle 1.07344e-014 2.78299e-015
rhumerus -21.3264 12.6791 -96.8191
rradius 55.1073
rwrist 3.88734
rhand 0.614397 -23.1174
rfingers 7.12502
rthumb 26.1787 -51.3323
lclavicle 1.07344e-014 2.78299e-015
lhumerus -40.7763 14.7267 85.0826
lradius 42.1749
lwrist 10.7039
lhand -21.2184 18.7476
lfingers 7.12502
lthumb 5.16349 48.6647
rfemur -27.9252 -4.46354 22.4198
rtibia 47.3418
rfoot -27.0835 -13.8916
rtoes -12.245
lfemur -8.34681 -4.8644 -19.4636
ltibia 22.4945
lfoot -38.222 12.2971
ltoes -15.3679
265
root -41.3122 16.8248 12.6307 -157.034 79.7303 -169.897
lowerback 0.69167 -2.66129 5.30366
upperback 0.602443 -3.52079 -0.905964
thorax -0.143576 -1.75118 -3.86234
lowerneck -0.239872 2.07785 -4.32416
upperneck -10.7002 3.24489 4.02956
head -3.59361 1.71984 1.99094
rclavicle 4.22417e-014 1.59028e-015
rhumerus -22.223 12.0306 -96.8538
rradius 53.5033
rwrist 3.8269
rhand 0.478799 -23.2674
rfingers 7.12502
rthumb 26.0489 -51.5014
lclavicle 4.22417e-014 1.59028e-015
lhumerus -39.7968 14.0489 86.0435
lradius 42.5138
lwrist 11.364
lhand -21.2048 18.8823
lfingers 7.12502
lthumb 5.17664 48.7991
rfemur -28.0946 -3.86095 22.6634
rtibia 47.9912
rfoot -26.8767 -14.881
rtoes -12.5097
lfemur -6.51453 -5.48092 -19.3381
ltibia 21.3695
lfoot -37.8898 12.5001
ltoes -14.7648
266
root -41.1783 16.8153 12.6233 -156.008 79.7944 -169.308
lowerback 0.583644 -2.68037 5.74901
upperback 0.625296 -3.55173 -1.15902
thorax -0.105335 -1.76466 -4.37886
lowerneck -0.211164 2.00911 -4.09076
upperneck -11.0312 3.19585 4.18512
head -3.71103 1.68608 2.00459
rclavicle -1.19271e-015 -1.82882e-014
rhumerus -23.0668 11.1866 -97.2608
rradius 51.7337
rwrist 3.61198
rhand 0.436823 -23.7811
rfingers 7.12502
rthumb 26.0087 -52.0211
lclavicle -1.19271e-015 -1.82882e-014
lhumerus -38.8247 13.3047 86.5796
lradius 42.938
lwrist 11.8057
lhand -21.2643 18.6761
lfingers 7.12502
lthumb 5.11913 48.5942
rfemur -29.7272 -3.75502 22.859
rtibia 48.5807
rfoot -26.7555 -14.5149
rtoes -12.3607
lfemur -6.01422 -5.54694 -19.2347
ltibia 20.3252
lfoot -37.535 12.6916
ltoes -15.1644
267
root -41.0388 16.8082 12.6198 -155.284 79.7855 -168.926
lowerback 0.656174 -2.70364 5.61556
upperback 0.680971 -3.57932 -0.946313
thorax -0.0702472 -1.77585 -4.08151
lowerneck -0.385421 1.93121 -4.60295
upperneck -11.3128 3.11682 4.3346
head -3.79109 1.67026 2.15445
rclavicle -3.63776e-014 -1.90833e-014
rhumerus -23.8069 10.5391 -96.8171
rradius 49.7357
rwrist 4.00653
rhand 0.582528 -24.3569
rfingers 7.12502
rthumb 26.1482 -52.5763
lclavicle -3.63776e-014 -1.90833e-014
lhumerus -37.6709 12.9501 87.773
lradius 43.3912
lwrist 12.0063
lhand -21.8275 19.0413
lfingers 7.12502
lthumb 4.57536 48.9719
rfemur -31.3062 -3.68595 23.084
rtibia 49.1416
rfoot -26.4362 -14.7205
rtoes -13.1764
lfemur -5.41443 -5.57151 -19.1028
ltibia 19.2541
lfoot -37.1552 12.568
ltoes -15.6944
268
root -40.9069 16.7912 12.6101 -153.304 79.866 -167.128
lowerback 1.09377 -2.68688 5.92374
upperback 0.679526 -3.52635 -0.841215
thorax -0.32265 -1.75586 -4.12394
lowerneck -0.388405 1.87557 -4.77745
upperneck -11.6427 3.06329 4.38799
head -3.91098 1.65496 2.20896
rclavicle 5.52621e-014 -1.86858e-014
rhumerus -24.8477 10.1388 -96.6121
rradius 47.9322
rwrist 4.23976
rhand 0.784332 -25.1185
rfingers 7.12502
rthumb 26.3414 -53.3092
lclavicle 5.52621e-014 -1.86858e-014
lhumerus -36.577 12.6305 88.6658
lradius 43.8891
lwrist 11.6334
lhand -20.8519 17.9641
lfingers 7.12502
lthumb 5.51736 47.8723
rfemur -32.8089 -3.59117 23.4663
rtibia 49.675
rfoot -25.8117 -14.5943
rtoes -14.0465
lfemur -4.67531 -5.76602 -18.8367
ltibia 18.2297
lfoot -36.6346 13.1454
ltoes -15.8895
269
root -40.7656 16.7782 12.6164 -153.882 79.8441 -168.168
lowerback 1.16656 -2.74647 5.70428
upperback 0.697989 -3.60384 -0.898833
thorax -0.34381 -1.79502 -4.05525
lowerneck -0.557073 1.79627 -4.87824
upperneck -11.9671 3.00343 4.54801
head -3.99796 1.63369 2.28782
rclavicle 3.3197e-014 -2.66371e-014
rhumerus -25.6241 9.08973 -96.427
rradius 45.8035
rwrist 5.48525
rhand 0.909967 -25.3748
rfingers 7.12502
rthumb 26.4617 -53.5473
lclavicle 3.3197e-014 -2.66371e-014
lhumerus -35.6174 11.7525 89.4212
lradius 44.6233
lwrist 10.7636
lhand -19.779 17.3171
lfingers 7.12502
lthumb 6.55319 47.1957
rfemur -34.5522 -3.42604 23.4332
rtibia 50.2278
rfoot -25.4451 -14.6935
rtoes -13.5997
lfemur -4.15361 -5.77437 -18.894
ltibia 17.0998
lfoot -36.1717 12.9929
ltoes -15.7345
270
root -40.6154 16.7624 12.6166 -153.765 79.5853 -168.306
lowerback 1.24257 -2.86159 6.1075
upperback 0.852566 -3.75194 -1.16626
thorax -0.286755 -1.86284 -4.55411
lowerneck -0.677333 1.71797 -4.53502
upperneck -12.4115 2.96954 4.72065
head -4.12768 1.6071 2.28939
rclavicle -4.49253e-014 -1.82882e-014
rhumerus -26.2585 7.47333 -96.4546
rradius 43.4765
rwrist 7.52592
rhand 1.43209 -26.0421
rfingers 7.12502
rthumb 26.9613 -54.1384
lclavicle -4.49253e-014 -1.82882e-014
lhumerus -34.2024 10.8725 89.8041
lradius 45.4445
lwrist 12.6325
lhand -19.804 17.4888
lfingers 7.12502
lthumb 6.52904 47.3681
rfemur -36.0371 -3.28569 23.5584
rtibia 50.757
rfoot -25.5274 -14.8917
rtoes -13.683
lfemur -3.36 -6.2048 -18.7419
ltibia 15.9206
lfoot -35.7647 13.0754
ltoes -15.9362
271
root -40.4604 16.7445 12.6164 -153.539 79.4385 -168.364
lowerback 1.49356 -2.93824 5.93852
upperback 0.901038 -3.83868 -0.915791
thorax -0.360171 -1.90663 -4.18519
lowerneck -0.848362 1.61536 -5.03616
upperneck -12.7723 2.85631 4.7717
head -4.2329 1.58236 2.40755
rclavicle -4.07509e-014 7.55382e-015
rhumerus -26.9802 6.27797 -95.6638
rradius 41.1343
rwrist 9.35864
rhand 1.24741 -26.1659
rfingers 7.12502
rthumb 26.7846 -54.2894
lclavicle -4.07509e-014 7.55382e-015
lhumerus -32.9415 9.92988 91.1736
lradius 46.212
lwrist 12.1854
lhand -20.5341 17.6702
lfingers 7.12502
lthumb 5.82416 47.5702
rfemur -37.6082 -2.9857 23.6488
rtibia 51.3073
rfoot -25.4278 -15.2292
rtoes -13.2991
lfemur -2.57706 -6.42889 -18.6348
ltibia 14.6959
lfoot -35.2615 13.3144
ltoes -16.5892
272
root -40.3073 16.7205 12.6197 -153.531 79.1568 -168.763
lowerback 1.59465 -3.04938 5.86767
upperback 0.959438 -3.98099 -0.787207
thorax -0.359312 -1.9758 -4.00407
lowerneck -0.896127 1.50728 -5.21649
upperneck -13.7078 2.78807 4.95221
head -4.07655 1.54277 2.27697
rclavicle -3.51849e-014 -2.0276e-014
rhumerus -27.6928 4.74243 -94.9218
rradius 38.8343
rwrist 11.8172
rhand 1.40642 -25.6255
rfingers 7.12502
rthumb 26.9368 -53.7257
lclavicle -3.51849e-014 -2.0276e-014
lhumerus -31.638 9.0633 92.1758
lradius 47.2395
lwrist 12.0535
lhand -20.8951 17.753
lfingers 7.12502
lthumb 5.47559 47.6622
rfemur -39.3259 -2.99676 23.7676
rtibia 51.8288
rfoot -25.2677 -15.5321
rtoes -13.5609
lfemur -1.97512 -6.79867 -18.5016
ltibia 13.4959
lfoot -34.7487 13.5639
ltoes -16.3255
273
root -40.1805 16.7048 12.6418 -154.111 78.2967 -170.108
lowerback 1.83547 -3.34044 5.66673
upperback 0.815611 -4.35175 -0.555461
thorax -0.651719 -2.17277 -3.61918
lowerneck -0.969936 1.43129 -5.41666
upperneck -14.2507 2.73142 5.00299
head -4.22898 1.5345 2.32889
rclavicle 2.38542e-015 -1.86858e-014
rhumerus -28.3113 2.9444 -94.0172
rradius 36.4353
rwrist 13.65
rhand 1.5121 -24.9844
rfingers 7.12502
rthumb 27.0379 -53.0689
lclavicle 2.38542e-015 -1.86858e-014
lhumerus -30.3316 8.06243 93.096
lradius 48.6913
lwrist 13.3505
lhand -20.9266 17.6982
lfingers 7.12502
lthumb 5.44521 47.6082
rfemur -41.4659 -3.1639 23.8963
rtibia 52.3433
rfoot -25.2491 -15.8754
rtoes -13.3269
lfemur -1.84592 -7.36591 -18.1109
ltibia 12.1014
lfoot -34.0465 13.4085
ltoes -17.7353
